<svg enable-background="new 0 0 601.6 528.9" viewBox="0 0 601.6 528.9" xmlns="http://www.w3.org/2000/svg"><g fill="#f41414"><path d="m376.4 295.3h15.1v28.9h3.1v-28.9h49.4l-17-29.7-.2-.3 16.7-29.3h-33.4l-.1-.1-16.9-29.7-33.6 59.4z"/><path d="m234.6 295.3h-15v28.9h-3.2v-28.9h-49.3l17-29.7.2-.3-16.7-29.3h33.4v-.1l17-29.7 33.6 59.4z"/><path d="m307.2 198.3h49.3l-16.9-29.7-.2-.3 16.7-29.3h-33.4l-.1-.1-16.9-29.7-17 29.7h-33.9l16.9 29.7-16.9 29.7h49.3z"/><path d="m394.6 198.3h49.4l-17-29.7-.2-.3 16.7-29.3h-33.4l-.1-.1-16.9-29.7-33.6 59.4 16.9 29.7h15.1z"/><path d="m216.4 198.3h-49.3l17-29.7.2-.3-16.7-29.3h33.4v-.1l17-29.7 33.6 59.4-17 29.7h-15z"/><path d="m254.9 334.8 16.8 29.6-16.9 29.7h49.3v28.9h3.1v-28.9h49.3l-16.9-29.7-.2-.3 16.7-29.3z"/><path d="m167.6 334.8 16.7 29.3-.2.3-17 29.7h49.3v28.9h3.2v-28.9h15l17-29.7-16.7-29.6z"/><path d="m376.2 334.8-16.7 29.6 16.9 29.7h15.1v28.9h3.1v-28.9h49.4l-17-29.7-.2-.3 16.7-29.3z"/></g></svg>