<svg enable-background="new 0 0 601.6 528.9" viewBox="0 0 601.6 528.9" xmlns="http://www.w3.org/2000/svg"><g fill="#f41414"><path d="m498.3 265.6-.2-.3 16.7-29.3h-33.4l-.1-.1-16.9-29.7-16.8 29.7 17.3 29.7-17 29.7h14.9v28.9h3.1v-28.9h49.3z"/><path d="m109 265.6.2-.3-16.7-29.3h33.4v-.1l17-29.7 16.8 29.7-17.3 29.7 17 29.7h-14.9v28.9h-3.2v-28.9h-49.3z"/><path d="m465.9 198.3h49.3l-16.9-29.7-.2-.3 16.7-29.3h-33.4l-.1-.1-16.9-29.7-16.8 29.7 17.3 29.7-17 29.7h14.9z"/><path d="m141.3 198.3h-49.3l17-29.7.2-.3-16.7-29.3h33.4v-.1l17-29.7 16.8 29.7-17.3 29.7 17 29.7h-14.9z"/><path d="m271.7 99.2h67.9l-.2-.3 16.7-29.2h-33.4l-.1-.2-16.9-29.7-17 29.7h-33.9z"/><path d="m184.1 99.2h67.5l-33.6-59.4-17 29.7v.1h-33.4l16.7 29.3z"/><path d="m427 99.2-.2-.3 16.7-29.3h-33.4l-.1-.1-16.9-29.7-33.6 59.4z"/><path d="m498.3 99.2-.2-.3 16.7-29.3h-33.4l-.1-.1-16.9-29.7-16.8 29.7 17.3 29.7z"/><path d="m109 99.2h33.4l17.3-29.7-16.8-29.7-17 29.7v.1h-33.4l16.7 29.3z"/><path d="m142.6 431.9h-33.5l.1.1-.2.3-17 29.7h49.3v28.9h3.2v-28.9h14.9l-17-29.7z"/><path d="m184.2 431.9.1.1-.2.3-17 29.7h49.3v28.9h3.2v-28.9h15l17-29.7-.3-.4z"/><path d="m339.6 432.3-.2-.3v-.1h-67.9l.2.4-16.9 29.7h49.3v28.9h3.1v-28.9h49.3z"/><path d="m427 432.3-.2-.3v-.1h-67.1l-.2.4 16.9 29.7h15.1v28.9h3.1v-28.9h49.4z"/><path d="m498.3 432.3-.2-.3v-.1h-33l-.2.4-17 29.7h14.9v28.9h3.1v-28.9h49.3z"/><path d="m92.5 334.8 16.7 29.3-.2.3-17 29.7h49.3v28.9h3.2v-28.9h14.9l-17-29.7 17.2-29.6z"/><path d="m447.7 334.8 17.2 29.6-17 29.7h14.9v28.9h3.1v-28.9h49.3l-16.9-29.7-.2-.3 16.7-29.3z"/></g></svg>