<svg enable-background="new 0 0 601.6 528.9" viewBox="0 0 601.6 528.9" xmlns="http://www.w3.org/2000/svg"><g fill="#f41414"><path d="m562.6 235.9h-29.9l-15.5 29.3 15.9 30.1h30l-16-30.1z"/><path d="m40.8 235.9h30l15.5 29.3-16 30.1h-29.9l16-30.1z"/><path d="m562.6 138.9h-29.9l-15.5 29.3 15.9 30.1h30l-16-30.1z"/><path d="m40.8 138.9h30l15.5 29.3-16 30.1h-29.9l16-30.1z"/><path d="m56.2 99.2h29.9l.2-.4-15.5-29.3h-30l15.6 29.3z"/><path d="m547.3 99.2-.2-.4 15.5-29.3h-29.9l-15.5 29.3.2.4z"/><path d="m159.7 29.7-16.8-29.7-17 29.7v.1"/><path d="m322.6 29.7-16.8-29.7-17 29.7-.1.1"/><path d="m218 0-17 29.7-.1.1 33.9-.1z"/><path d="m322.6 29.7-16.8-29.7-17 29.7-.1.1"/><path d="m481.7 29.7-16.8-29.7-17 29.7-.1.1"/><path d="m392.3 0-17 29.7-.1.1 33.9-.1z"/><path d="m40.4 462h29.9l16-30.1h-29.9z"/><path d="m141.3 500.1h3.1v28.9h-3.1z"/><path d="m216.4 500.1h3.1v28.9h-3.1z"/><path d="m304.1 500.1h3.1v28.9h-3.1z"/><path d="m391.5 500.1h3.1v28.9h-3.1z"/><path d="m462.8 500.1h3.1v28.9h-3.1z"/><path d="m517.2 431.9 15.9 30.1h30l-16-30.1z"/><path d="m40.9 334.8 15.5 29.2-16 30.1h29.9l16-30.1-15.5-29.2z"/><path d="m562.5 334.8h-29.9l-15.4 29.2 15.9 30.1h30l-16-30.1z"/></g></svg>