<svg enable-background="new 0 0 601.6 528.9" viewBox="0 0 601.6 528.9" xmlns="http://www.w3.org/2000/svg"><g fill="#f41414"><path d="m585.6 265.2-15.9 30h15.9 16z"/><path d="m570.1 235.9 15.5 29.2 15.5-29.2z"/><path d="m15.9 265.2 16 30h-16-15.9z"/><path d="m31.4 235.9-15.5 29.2-15.5-29.2z"/><path d="m585.6 364-15.9 30h15.9 16z"/><path d="m15.9 364 16 30h-16-15.9z"/><path d="m585.6 168.2-15.9 30h15.9 16z"/><path d="m570.1 138.9 15.5 29.2 15.5-29.2z"/><path d="m15.9 168.2 16 30h-16-15.9z"/><path d="m31.4 138.9-15.5 29.2-15.5-29.2z"/><path d="m570.1 69.5 15.5 29.2 15.5-29.2z"/><path d="m31.4 69.5-15.5 29.2-15.5-29.2z"/><path d="m585.6 431.9-15.9 30h15.9 16z"/><path d="m15.9 431.9 16 30h-16-15.9z"/><path d="m.5 334.8 15.4 29.1 15.4-29.1z"/><path d="m570.2 334.8 15.4 29.1 15.4-29.1z"/></g></svg>