<svg height="102pt" preserveAspectRatio="xMidYMid meet" viewBox="0 0 102 102" width="102pt" xmlns="http://www.w3.org/2000/svg"><path d="m850 933c-74-41-153-84-175-96-65-36-80-50-107-97-14-25-37-65-51-89l-25-44-25 39c-13 22-39 65-56 97-18 31-36 57-39 57-4 0-32-44-63-98l-57-98-116 1c-64 0-116-1-116-3s25-46 55-98c30-53 55-100 55-105 0-6-25-52-55-104-30-51-55-95-55-97 0-3 75-4 168-4h167l3-92c1-51 7-92 12-92 11 0 12 1 12 100 1 41 4 77 8 80 5 3 81 5 169 4 89 0 161 2 161 5s-25 49-54 101l-55 95 112 5c111 5 113 5 199 53l86 48v254c0 182-4 255-12 254-6 0-72-34-146-76z" transform="matrix(.1 0 0 -.1 0 102)"/></svg>