<svg xmlns="http://www.w3.org/2000/svg" xmlns:xlink="http://www.w3.org/1999/xlink"><symbol viewBox="0 0 7.062 94.03" id="arrow-long-down" xmlns="http://www.w3.org/2000/svg"><defs><style>.acls-1{fill:#fff;fill-rule:evenodd}</style></defs><path id="aRectangle_20_copy_10" data-name="Rectangle 20 copy 10" class="acls-1" d="M963.035 5403.5l-3.535 3.54-3.536-3.54M959 5313h1v92h-1v-92z" transform="translate(-955.969 -5313)"/></symbol><symbol viewBox="0 0 94.2 35.1" id="arrow-right" xmlns="http://www.w3.org/2000/svg"><path d="M76.7 0l-3.6 3.6L84.6 15H0v5.1h84.6L73.1 31.5l3.6 3.6 17.5-17.5z"/></symbol><symbol id="close" viewBox="0 0 15.6 15.6" xmlns="http://www.w3.org/2000/svg"><style>.cst0{fill-rule:evenodd;clip-rule:evenodd}</style><path class="cst0" d="M1.4 0l14.1 14.1-1.4 1.4L0 1.4 1.4 0z"/><path class="cst0" d="M15.6 1.4L1.4 15.6 0 14.1 14.1 0l1.5 1.4z"/></symbol><symbol id="expo" viewBox="0 0 145 110.4" xmlns="http://www.w3.org/2000/svg"><style>.dst0{fill:#0f0f0f}</style><path class="dst0" d="M102.2 0v42.4c.1 0 .2.1.2.1 11.1-13.7 22.3-27.4 33.4-41.1 3.1 2.5 6.1 4.9 9.1 7.4-.3.4-.5.7-.7 1-13.7 16.9-27.5 33.8-41.3 50.7-.6.7-.8 1.5-.8 2.4v47.4H90.4c0-.5-.1-1.1-.1-1.6V63.4c0-1.3-.3-2.3-1.2-3.4-5.1-6.4-10.4-13-15.6-19.6-.3-.3-.6-.7-.9-1.1-.4.4-.7.8-1 1.2-5.3 6.7-10.7 13.3-16 20-.5.7-.9 1.6-.9 2.5-.1 15.2 0 30.4 0 45.6v1.7H42.9v-1.4-46c0-.9-.2-1.7-.8-2.4C28.3 43.7 14.5 26.7.8 9.8c-.3-.2-.5-.5-.8-1 3-2.5 6.1-4.9 9.2-7.5C20.4 15 31.5 28.7 42.6 42.4c.1 0 .2 0 .3-.1V-.1h13.7l.3.6C61.9 7 67 13.4 72.1 19.7c.1.1.3.2.5.4.3-.4.6-.7.9-1.1 4.7-5.8 9.3-11.6 14-17.5.4-.5.8-1.1 1.2-1.6 4.4.1 9 .1 13.5.1zM54.7 42.5c3.5-4.4 6.9-8.6 10.2-12.8-3.4-4.2-6.7-8.4-10.2-12.8v25.6zm35.6 0V16.9c-3.5 4.4-6.9 8.6-10.2 12.8 3.4 4.3 6.7 8.4 10.2 12.8z"/></symbol><symbol viewBox="0 0 31.4 36.6" id="external" xmlns="http://www.w3.org/2000/svg"><path d="M12.4 7.8H5.9c-1.6 0-3 .6-4.2 1.7S0 12.1 0 13.7v17c0 1.6.6 3 1.7 4.2 1.2 1.2 2.5 1.7 4.2 1.7h17c1.6 0 3-.6 4.2-1.7 1.2-1.2 1.7-2.5 1.7-4.2V16.3c0-.2-.1-.3-.2-.5-.1-.1-.3-.2-.5-.2h-1.3c-.2 0-.3.1-.5.2-.1.1-.2.3-.2.5v14.4c0 .9-.3 1.7-1 2.3s-1.4 1-2.3 1h-17c-.9 0-1.7-.3-2.3-1s-1-1.4-1-2.3v-17c0-.9.3-1.7 1-2.3s1.4-1 2.3-1h6.5c.2 0 .3-.1.5-.2.1-.1.2-.3.2-.5V8.5c0-.2-.1-.3-.2-.5 0-.1-.2-.2-.4-.2zM30.1 0H19.6c-.4 0-.7.1-.9.4s-.4.6-.4.9.1.7.4.9l3.6 3.6L9 19.1c-.1.1-.2.3-.2.5s.1.3.2.5l2.3 2.3c.1.1.3.2.5.2s.3-.1.5-.2L25.6 9.1l3.6 3.6c.3.3.6.4.9.4s.7-.1.9-.4c.3-.3.4-.6.4-.9V1.3c0-.4-.1-.7-.4-.9-.3-.3-.6-.4-.9-.4z"/></symbol><symbol id="eye" viewBox="0 0 24 16" xmlns="http://www.w3.org/2000/svg"><style>.fst0{clip-path:url(#fSVGID_2_);fill:#fff}</style><defs><path id="fSVGID_1_" d="M0 0h24v16H0z"/></defs><clipPath id="fSVGID_2_"><use xlink:href="#fSVGID_1_" overflow="visible"/></clipPath><path class="fst0" d="M15 8c0 1.7-1.3 3-3 3S9 9.7 9 8s1.3-3 3-3 3 1.3 3 3m9-.4S19.7 16 12 16C4.8 16 0 7.6 0 7.6S4.4 0 12 0c7.7 0 12 7.6 12 7.6M17 8c0-2.8-2.2-5-5-5S7 5.2 7 8s2.2 5 5 5 5-2.2 5-5"/></symbol><symbol viewBox="0 0 24 24" id="facebook" xmlns="http://www.w3.org/2000/svg"><path d="M9 8H6v4h3v12h5V12h3.6l.4-4h-4V6.3c0-1 .2-1.3 1.1-1.3H18V0h-3.8C10.6 0 9 1.6 9 4.6V8z"/></symbol><symbol stroke-miterlimit="10" shape-rendering="geometricPrecision" fill-rule="evenodd" viewBox="0 0 128 128" id="icon-wikipedia" xmlns="http://www.w3.org/2000/svg"><path d="M120.85 29.21c0 .41-.13.78-.38 1.12-.26.33-.53.5-.84.5-2.49.24-4.54 1.04-6.12 2.41-1.59 1.36-3.22 3.97-4.91 7.81L82.8 99.19c-.17.54-.64.81-1.42.81-.61 0-1.08-.27-1.42-.81L65.49 68.93 48.85 99.19c-.34.54-.81.81-1.42.81-.74 0-1.23-.27-1.47-.81L20.61 41.05c-1.58-3.61-3.25-6.13-5.01-7.56-1.75-1.43-4.2-2.32-7.33-2.66-.27 0-.53-.14-.76-.43-.24-.28-.36-.61-.36-.98 0-.95.27-1.42.81-1.42 2.26 0 4.62.1 7.09.3 2.29.21 4.45.31 6.47.31 2.06 0 4.49-.1 7.29-.31 2.93-.2 5.53-.3 7.79-.3.54 0 .81.47.81 1.42 0 .94-.17 1.41-.5 1.41-2.26.17-4.04.75-5.34 1.72-1.3.98-1.95 2.26-1.95 3.85 0 .81.27 1.82.81 3.03l20.95 47.31 11.89-22.46-11.08-23.23c-1.99-4.14-3.63-6.82-4.91-8.02-1.28-1.19-3.22-1.93-5.82-2.2-.24 0-.46-.14-.68-.43-.22-.28-.33-.61-.33-.98 0-.95.23-1.42.71-1.42 2.26 0 4.33.1 6.22.3 1.82.21 3.76.31 5.82.31 2.02 0 4.16-.1 6.42-.31 2.33-.2 4.62-.3 6.88-.3.54 0 .81.47.81 1.42 0 .94-.16 1.41-.5 1.41-4.52.31-6.78 1.59-6.78 3.85 0 1.01.52 2.58 1.57 4.7l7.33 14.88 7.29-13.61c1.01-1.92 1.52-3.54 1.52-4.86 0-3.1-2.26-4.75-6.78-4.96-.41 0-.61-.47-.61-1.41 0-.34.1-.66.3-.96.21-.31.41-.46.61-.46 1.62 0 3.61.1 5.97.3 2.26.21 4.12.31 5.57.31 1.04 0 2.58-.09 4.6-.26 2.56-.23 4.71-.35 6.43-.35.4 0 .6.4.6 1.21 0 1.08-.37 1.62-1.11 1.62-2.63.27-4.75 1-6.35 2.18-1.6 1.18-3.6 3.86-5.99 8.04l-9.72 17.97 13.16 26.81 19.43-45.18c.67-1.65 1.01-3.17 1.01-4.55 0-3.31-2.26-5.06-6.78-5.27-.41 0-.61-.47-.61-1.41 0-.95.3-1.42.91-1.42 1.65 0 3.61.1 5.87.3 2.09.21 3.85.31 5.26.31 1.49 0 3.21-.1 5.16-.31 2.03-.2 3.85-.3 5.47-.3.47 0 .71.4.71 1.21z"/></symbol><symbol viewBox="0 0 24 24" id="instagram" xmlns="http://www.w3.org/2000/svg"><path d="M12 2.163c3.204 0 3.584.012 4.85.07 3.252.148 4.771 1.691 4.919 4.919.058 1.265.069 1.645.069 4.849 0 3.205-.012 3.584-.069 4.849-.149 3.225-1.664 4.771-4.919 4.919-1.266.058-1.644.07-4.85.07-3.204 0-3.584-.012-4.849-.07-3.26-.149-4.771-1.699-4.919-4.92-.058-1.265-.07-1.644-.07-4.849 0-3.204.013-3.583.07-4.849.149-3.227 1.664-4.771 4.919-4.919 1.266-.057 1.645-.069 4.849-.069zM12 0C8.741 0 8.333.014 7.053.072 2.695.272.273 2.69.073 7.052.014 8.333 0 8.741 0 12s.014 3.668.072 4.948c.2 4.358 2.618 6.78 6.98 6.98C8.333 23.986 8.741 24 12 24s3.668-.014 4.948-.072c4.354-.2 6.782-2.618 6.979-6.98.059-1.28.073-1.689.073-4.948s-.014-3.667-.072-4.947c-.196-4.354-2.617-6.78-6.979-6.98C15.668.014 15.259 0 12 0zm0 5.838a6.162 6.162 0 1 0 0 12.324 6.162 6.162 0 0 0 0-12.324zM12 16a4 4 0 1 1 0-8 4 4 0 0 1 0 8zm6.406-11.845a1.44 1.44 0 1 0 0 2.881 1.44 1.44 0 0 0 0-2.881z"/></symbol><symbol id="laplante" viewBox="0 0 538.7 664.7" xmlns="http://www.w3.org/2000/svg"><style>.jst0{fill:none;stroke:#000;stroke-width:100;stroke-miterlimit:10}</style><path class="jst0" d="M512.1 394.3h-357s-105 4.7-105 101c-3.7 100 78.3 119.3 103.7 119.3 103.3 0 113.3-92.8 113.3-92.8s.3-57.7-.7-77.2l2.4-110.6 2.4-114.1c0-19.4.3-77.2.3-77.2S281.6 50 384.9 50c25.3 0 107.3 19.3 103.7 119.3 0 96.3-105 101-105 101h-357"/></symbol><symbol viewBox="0 0 24 24" id="letter" xmlns="http://www.w3.org/2000/svg"><path d="M12 12.7L0 3h24l-12 9.7zm0 2.6L0 5.6V21h24V5.6l-12 9.7z"/></symbol><symbol id="location" viewBox="0 0 16 24" xmlns="http://www.w3.org/2000/svg"><style>.lst0{clip-path:url(#lSVGID_2_)}</style><defs><path id="lSVGID_1_" d="M0 0h16v24H0z"/></defs><clipPath id="lSVGID_2_"><use xlink:href="#lSVGID_1_" overflow="visible"/></clipPath><path class="lst0" d="M8 0C3.8 0 0 3.4 0 7.6c0 4.2 3.5 9.2 8 16.4 4.5-7.2 8-12.2 8-16.4C16 3.4 12.2 0 8 0m0 11c-1.7 0-3-1.3-3-3s1.3-3 3-3 3 1.3 3 3-1.3 3-3 3"/></symbol><symbol viewBox="0 0 164.19 23" id="logo" xmlns="http://www.w3.org/2000/svg"><title>logo</title><path d="M7.65.42a9.14 9.14 0 0 1 3.19.58 6.93 6.93 0 0 1 2.56 1.61 7.57 7.57 0 0 1 1.69 2.73 11.06 11.06 0 0 1 .61 3.85 12.29 12.29 0 0 1-.5 3.58 7.88 7.88 0 0 1-1.5 2.83 7 7 0 0 1-2.51 1.88 8.49 8.49 0 0 1-3.54.68H0V.42zm-.27 14.46A5 5 0 0 0 9 14.6a3.61 3.61 0 0 0 1.42-.91 4.56 4.56 0 0 0 1-1.65 7.26 7.26 0 0 0 .37-2.48 10.34 10.34 0 0 0-.26-2.42 4.83 4.83 0 0 0-.86-1.85A3.8 3.8 0 0 0 9.1 4.11a6.3 6.3 0 0 0-2.42-.41H3.9v11.18zM20.83 15.08a3.15 3.15 0 0 0 2.29.77 3.14 3.14 0 0 0 1.84-.53 2.22 2.22 0 0 0 .94-1.13H29a5.89 5.89 0 0 1-2.29 3.3 6.73 6.73 0 0 1-3.73 1 7.33 7.33 0 0 1-2.73-.49 5.68 5.68 0 0 1-2.06-1.38 6.2 6.2 0 0 1-1.3-2.14 7.81 7.81 0 0 1-.46-2.73 7.49 7.49 0 0 1 .47-2.68 6.21 6.21 0 0 1 3.42-3.58A6.65 6.65 0 0 1 23 5a6.11 6.11 0 0 1 2.86.63 5.71 5.71 0 0 1 2 1.7A7 7 0 0 1 29 9.74a9.07 9.07 0 0 1 .25 2.86H20a3.56 3.56 0 0 0 .83 2.48zm4-6.76a2.48 2.48 0 0 0-1.92-.7 3.07 3.07 0 0 0-1.4.29 2.68 2.68 0 0 0-.89.71 2.59 2.59 0 0 0-.47.89 4 4 0 0 0-.16.84h5.74a4.08 4.08 0 0 0-.92-2.03zM33.29 15a2.06 2.06 0 0 0 .61.67 2.61 2.61 0 0 0 .86.38 4 4 0 0 0 1 .12 3.76 3.76 0 0 0 .78-.09 2.66 2.66 0 0 0 .75-.27 1.69 1.69 0 0 0 .56-.5 1.3 1.3 0 0 0 .22-.78q0-.79-1.06-1.19a21.17 21.17 0 0 0-2.94-.79q-.77-.17-1.5-.41a5.12 5.12 0 0 1-1.3-.62 3 3 0 0 1-.92-1A2.74 2.74 0 0 1 30 9.09a3.86 3.86 0 0 1 .48-2 3.57 3.57 0 0 1 1.28-1.29 5.61 5.61 0 0 1 1.79-.65 11 11 0 0 1 2-.19 10.18 10.18 0 0 1 2 .2 5.37 5.37 0 0 1 1.75.67 4 4 0 0 1 1.28 1.25 4.22 4.22 0 0 1 .61 2h-3.3a1.54 1.54 0 0 0-.77-1.38 3.52 3.52 0 0 0-1.64-.36 6.09 6.09 0 0 0-.65 0 2.16 2.16 0 0 0-.63.16 1.31 1.31 0 0 0-.48.36 1 1 0 0 0-.2.63 1 1 0 0 0 .35.77 2.68 2.68 0 0 0 .91.48 11.3 11.3 0 0 0 1.28.34l1.47.32a15 15 0 0 1 1.5.42 5 5 0 0 1 1.3.66 3.19 3.19 0 0 1 .92 1A3 3 0 0 1 41.6 14a3.9 3.9 0 0 1-1.84 3.5 5.45 5.45 0 0 1-1.88.73 11 11 0 0 1-2.15.21 10.64 10.64 0 0 1-2.19-.22 5.77 5.77 0 0 1-1.9-.75 4.26 4.26 0 0 1-1.37-1.38A4.31 4.31 0 0 1 29.7 14h3.35a1.93 1.93 0 0 0 .24 1zM42.78 3.33V.42h3.52v2.91zm3.53 2v12.83h-3.53V5.32zM60.14 19.1a4.36 4.36 0 0 1-.9 1.9 5.4 5.4 0 0 1-2 1.45 8.68 8.68 0 0 1-3.53.6 8.22 8.22 0 0 1-1.93-.24A6.12 6.12 0 0 1 50 22a4.4 4.4 0 0 1-1.34-1.28 3.71 3.71 0 0 1-.66-1.84h3.5a2 2 0 0 0 1 1.38 3.48 3.48 0 0 0 1.66.38 2.56 2.56 0 0 0 2.17-.89 3.51 3.51 0 0 0 .67-2.26V15.8a3.49 3.49 0 0 1-1.63 1.5 5.27 5.27 0 0 1-2.22.48 5.61 5.61 0 0 1-2.48-.51 4.71 4.71 0 0 1-1.71-1.39 5.8 5.8 0 0 1-1-2.06 9.76 9.76 0 0 1-.31-2.5A8 8 0 0 1 48 8.93a6.26 6.26 0 0 1 1.06-2 5.1 5.1 0 0 1 1.73-1.4A5.18 5.18 0 0 1 53.13 5a5 5 0 0 1 2.22.47A3.84 3.84 0 0 1 57 7V5.32h3.35v12a8.63 8.63 0 0 1-.21 1.78zm-4.83-4.27a2.75 2.75 0 0 0 .94-.79 3.52 3.52 0 0 0 .56-1.13 4.7 4.7 0 0 0 .19-1.34 7.29 7.29 0 0 0-.15-1.5 3.76 3.76 0 0 0-.5-1.25 2.58 2.58 0 0 0-.92-.87A2.9 2.9 0 0 0 54 7.63a2.59 2.59 0 0 0-1.28.3 2.69 2.69 0 0 0-.89.81 3.4 3.4 0 0 0-.53 1.16 5.76 5.76 0 0 0-.16 1.38 7 7 0 0 0 .14 1.38 3.71 3.71 0 0 0 .47 1.23 2.75 2.75 0 0 0 .88.89 2.5 2.5 0 0 0 1.37.35 2.81 2.81 0 0 0 1.31-.3zM65.33 5.32V7.1h.07a4 4 0 0 1 1.74-1.63A5 5 0 0 1 69.33 5a6 6 0 0 1 2.32.38 3.45 3.45 0 0 1 1.43 1.07 4.14 4.14 0 0 1 .73 1.66 10.37 10.37 0 0 1 .19 2.15v7.9h-3.51V10.9A4.5 4.5 0 0 0 70 8.53a1.92 1.92 0 0 0-1.76-.78 2.44 2.44 0 0 0-2.09.86 4.76 4.76 0 0 0-.65 2.82v6.73H62V5.32zM92.51 5.15a3.93 3.93 0 0 0-.87-1 4.07 4.07 0 0 0-2.56-.89 4.55 4.55 0 0 0-2.24.51 4.22 4.22 0 0 0-1.49 1.37 6 6 0 0 0-.83 1.95 9.71 9.71 0 0 0-.26 2.26 9 9 0 0 0 .26 2.17 5.86 5.86 0 0 0 .83 1.9 4.26 4.26 0 0 0 1.49 1.35 4.55 4.55 0 0 0 2.24.51 3.61 3.61 0 0 0 2.79-1.09 5.05 5.05 0 0 0 1.23-2.88h3.78a9 9 0 0 1-.77 3 7.2 7.2 0 0 1-1.64 2.29 7 7 0 0 1-2.38 1.44 8.74 8.74 0 0 1-3 .5 9.09 9.09 0 0 1-3.66-.71 7.85 7.85 0 0 1-2.74-1.95A8.63 8.63 0 0 1 81 13a10.71 10.71 0 0 1-.6-3.61 11.09 11.09 0 0 1 .6-3.71 8.86 8.86 0 0 1 1.71-3 7.84 7.84 0 0 1 2.74-2 9.51 9.51 0 0 1 6.43-.3 7.51 7.51 0 0 1 2.33 1.23 6.65 6.65 0 0 1 1.7 2 7.15 7.15 0 0 1 .84 2.73H93a3.19 3.19 0 0 0-.49-1.19zM97.79 9.26a4.09 4.09 0 0 1 .62-2.06 4.23 4.23 0 0 1 1.39-1.31 6.06 6.06 0 0 1 1.9-.71 10.82 10.82 0 0 1 2.12-.18 14.43 14.43 0 0 1 2 .14 6 6 0 0 1 1.81.53 3.57 3.57 0 0 1 1.34 1.11 3.09 3.09 0 0 1 .52 1.88v6.64a13.38 13.38 0 0 0 .1 1.66 3 3 0 0 0 .35 1.19h-3.58a5 5 0 0 1-.16-.61 5.18 5.18 0 0 1-.09-.63 4.6 4.6 0 0 1-2 1.22 8 8 0 0 1-2.33.35 6.31 6.31 0 0 1-1.71-.22 3.92 3.92 0 0 1-1.39-.7 3.23 3.23 0 0 1-.93-1.19 4 4 0 0 1-.34-1.71 3.74 3.74 0 0 1 .38-1.8 3.22 3.22 0 0 1 1-1.13 4.45 4.45 0 0 1 1.39-.63 15 15 0 0 1 1.58-.34q.79-.12 1.56-.2a9.42 9.42 0 0 0 1.37-.22 2.38 2.38 0 0 0 .94-.43 1 1 0 0 0 .32-.83 1.87 1.87 0 0 0-.19-.91 1.37 1.37 0 0 0-.5-.52 2 2 0 0 0-.72-.25 5.94 5.94 0 0 0-.88-.06 2.68 2.68 0 0 0-1.64.45 2 2 0 0 0-.7 1.49zm8.15 2.61a1.58 1.58 0 0 1-.56.31 5.7 5.7 0 0 1-.72.19q-.39.07-.81.12l-.84.12a6.38 6.38 0 0 0-.78.2 2.32 2.32 0 0 0-.67.34 1.59 1.59 0 0 0-.46.53 1.72 1.72 0 0 0-.17.82 1.66 1.66 0 0 0 .17.79 1.33 1.33 0 0 0 .47.51 2 2 0 0 0 .7.26 4.43 4.43 0 0 0 .82.07 3.11 3.11 0 0 0 1.61-.35 2.33 2.33 0 0 0 .84-.83 2.66 2.66 0 0 0 .34-1 6.82 6.82 0 0 0 .06-.79zM114.58 5.32V7.1h.07a4 4 0 0 1 1.74-1.63 5 5 0 0 1 2.19-.47 6 6 0 0 1 2.32.38 3.45 3.45 0 0 1 1.43 1.07 4.14 4.14 0 0 1 .73 1.66 10.37 10.37 0 0 1 .21 2.17v7.9h-3.53V10.9a4.5 4.5 0 0 0-.5-2.37 1.92 1.92 0 0 0-1.76-.78 2.44 2.44 0 0 0-2.09.86 4.76 4.76 0 0 0-.65 2.82v6.73h-3.53V5.32zM124.68 9.26a4.09 4.09 0 0 1 .62-2.06 4.23 4.23 0 0 1 1.39-1.32 6.06 6.06 0 0 1 1.9-.71 10.82 10.82 0 0 1 2.13-.17 14.43 14.43 0 0 1 2 .14 6 6 0 0 1 1.81.53 3.57 3.57 0 0 1 1.34 1.11 3.09 3.09 0 0 1 .52 1.88v6.64a13.38 13.38 0 0 0 .1 1.66 3 3 0 0 0 .35 1.19h-3.58a5 5 0 0 1-.16-.61 5.18 5.18 0 0 1-.09-.63 4.6 4.6 0 0 1-2 1.22 8 8 0 0 1-2.33.35 6.31 6.31 0 0 1-1.71-.22 3.92 3.92 0 0 1-1.39-.7 3.23 3.23 0 0 1-.93-1.19 4 4 0 0 1-.34-1.71 3.74 3.74 0 0 1 .38-1.8 3.22 3.22 0 0 1 1-1.13 4.45 4.45 0 0 1 1.39-.63 15 15 0 0 1 1.58-.34q.79-.12 1.56-.2a9.42 9.42 0 0 0 1.37-.22 2.38 2.38 0 0 0 .94-.43 1 1 0 0 0 .32-.83 1.87 1.87 0 0 0-.19-.91 1.37 1.37 0 0 0-.5-.52 2 2 0 0 0-.72-.25 5.94 5.94 0 0 0-.88-.06 2.68 2.68 0 0 0-1.64.45 2 2 0 0 0-.7 1.49zm8.15 2.61a1.58 1.58 0 0 1-.56.31 5.7 5.7 0 0 1-.72.19q-.39.07-.81.12l-.84.12a6.38 6.38 0 0 0-.78.2 2.32 2.32 0 0 0-.67.34 1.59 1.59 0 0 0-.46.53 1.72 1.72 0 0 0-.17.82 1.66 1.66 0 0 0 .17.79 1.33 1.33 0 0 0 .47.51 2 2 0 0 0 .7.26 4.43 4.43 0 0 0 .82.07 3.11 3.11 0 0 0 1.61-.35 2.33 2.33 0 0 0 .84-.83 2.66 2.66 0 0 0 .34-1 6.82 6.82 0 0 0 .06-.79zM147.11 16.52a3.64 3.64 0 0 1-1.63 1.5 5.41 5.41 0 0 1-2.27.46 5.49 5.49 0 0 1-2.53-.56 5.08 5.08 0 0 1-1.8-1.52 6.87 6.87 0 0 1-1.07-2.2 9.22 9.22 0 0 1-.36-2.58 8.67 8.67 0 0 1 .36-2.5A6.49 6.49 0 0 1 138.87 7a5.19 5.19 0 0 1 4.26-2 5.05 5.05 0 0 1 2.17.48 3.79 3.79 0 0 1 1.63 1.43V.42h3.53v17.74h-3.35v-1.64zm-.11-6.35a3.74 3.74 0 0 0-.51-1.29 2.87 2.87 0 0 0-.93-.91 2.73 2.73 0 0 0-1.44-.35 2.87 2.87 0 0 0-1.47.35 2.75 2.75 0 0 0-1 .92 4.06 4.06 0 0 0-.52 1.3 7.06 7.06 0 0 0-.16 1.53 6.53 6.53 0 0 0 .17 1.49 4.06 4.06 0 0 0 .56 1.33 3.09 3.09 0 0 0 1 .94 2.62 2.62 0 0 0 1.4.36 2.79 2.79 0 0 0 1.45-.35 2.64 2.64 0 0 0 .93-.93 4.17 4.17 0 0 0 .5-1.33 7.83 7.83 0 0 0 .15-1.54 7.64 7.64 0 0 0-.13-1.52zM152.07 9.26a4.09 4.09 0 0 1 .62-2.06 4.23 4.23 0 0 1 1.39-1.32 6.06 6.06 0 0 1 1.9-.71A10.82 10.82 0 0 1 158.1 5a14.43 14.43 0 0 1 2 .14 6 6 0 0 1 1.81.53 3.57 3.57 0 0 1 1.34 1.11 3.09 3.09 0 0 1 .52 1.88v6.64a13.38 13.38 0 0 0 .1 1.66 3 3 0 0 0 .35 1.19h-3.58a5 5 0 0 1-.16-.61 5.18 5.18 0 0 1-.09-.63 4.6 4.6 0 0 1-2 1.22 8 8 0 0 1-2.33.35 6.31 6.31 0 0 1-1.71-.22 3.92 3.92 0 0 1-1.39-.7 3.23 3.23 0 0 1-.93-1.19 4 4 0 0 1-.34-1.71 3.74 3.74 0 0 1 .38-1.8 3.22 3.22 0 0 1 1-1.13 4.45 4.45 0 0 1 1.39-.63 15 15 0 0 1 1.58-.34q.79-.12 1.56-.2a9.42 9.42 0 0 0 1.37-.22 2.38 2.38 0 0 0 .94-.43 1 1 0 0 0 .32-.83 1.87 1.87 0 0 0-.19-.91 1.37 1.37 0 0 0-.5-.52 2 2 0 0 0-.72-.25 5.94 5.94 0 0 0-.88-.06 2.68 2.68 0 0 0-1.64.45 2 2 0 0 0-.7 1.49zm8.15 2.61a1.58 1.58 0 0 1-.56.31 5.7 5.7 0 0 1-.72.19q-.39.07-.81.12l-.84.12a6.38 6.38 0 0 0-.78.2 2.32 2.32 0 0 0-.67.34 1.59 1.59 0 0 0-.46.53 1.72 1.72 0 0 0-.17.82 1.66 1.66 0 0 0 .17.79 1.33 1.33 0 0 0 .47.51 2 2 0 0 0 .7.26 4.43 4.43 0 0 0 .82.07 3.11 3.11 0 0 0 1.63-.33 2.33 2.33 0 0 0 .84-.83 2.66 2.66 0 0 0 .34-1 6.82 6.82 0 0 0 .06-.79z"/></symbol><symbol viewBox="0 0 100 100" id="logo-mark" xmlns="http://www.w3.org/2000/svg"><defs><clipPath id="na"><path fill="none" d="M0 0h100v99.04H0z"/></clipPath></defs><title>logo-mark</title><g clip-path="url(#na)"><path fill="#fff" d="M81.27 58.22H41.54l19.98-34.99.74-.7 14.95 14.52 4.06 21.17z"/><path d="M130.64 23.79a7 7 0 0 0-9.55-2.74l-43.24 24a7 7 0 0 0-2.74 9.55 7 7 0 0 0 9.55 2.74l43.24-24a7 7 0 0 0 2.74-9.55z" fill="#0077bf"/><path d="M123.84 11.52a7 7 0 0 0-9.55-2.74L71 32.78a7 7 0 0 0-2.74 9.55 7 7 0 0 0 9.55 2.74l43.24-24a7 7 0 0 0 2.79-9.55z" fill="#fff100"/><path d="M117-.75c-1.88-3.39-.86-7.58-4.25-5.7l-48.54 27a7 7 0 0 0-2.74 9.55 7 7 0 0 0 9.55 2.74l43.24-24A7 7 0 0 0 117-.75z" fill="#ec1c24"/><path fill="#808184" d="M63.28 58.22H41.54l10.87-19.05 10.87 19.05z"/><path d="M41.54 58.22l10.87-19-10.87-19-10.89 19H8.92l10.87 19-10.87 19h31.62v17.33h2V77.26h31.62l-10.87-19H41.54m-21.74 0" fill="#ec1c24"/></g></symbol><symbol viewBox="0 0 164.19 23" id="logo-type" xmlns="http://www.w3.org/2000/svg"><title>logo</title><path d="M7.65.42a9.14 9.14 0 0 1 3.19.58 6.93 6.93 0 0 1 2.56 1.61 7.57 7.57 0 0 1 1.69 2.73 11.06 11.06 0 0 1 .61 3.85 12.29 12.29 0 0 1-.5 3.58 7.88 7.88 0 0 1-1.5 2.83 7 7 0 0 1-2.51 1.88 8.49 8.49 0 0 1-3.54.68H0V.42zm-.27 14.46A5 5 0 0 0 9 14.6a3.61 3.61 0 0 0 1.42-.91 4.56 4.56 0 0 0 1-1.65 7.26 7.26 0 0 0 .37-2.48 10.34 10.34 0 0 0-.26-2.42 4.83 4.83 0 0 0-.86-1.85A3.8 3.8 0 0 0 9.1 4.11a6.3 6.3 0 0 0-2.42-.41H3.9v11.18zM20.83 15.08a3.15 3.15 0 0 0 2.29.77 3.14 3.14 0 0 0 1.84-.53 2.22 2.22 0 0 0 .94-1.13H29a5.89 5.89 0 0 1-2.29 3.3 6.73 6.73 0 0 1-3.73 1 7.33 7.33 0 0 1-2.73-.49 5.68 5.68 0 0 1-2.06-1.38 6.2 6.2 0 0 1-1.3-2.14 7.81 7.81 0 0 1-.46-2.73 7.49 7.49 0 0 1 .47-2.68 6.21 6.21 0 0 1 3.42-3.58A6.65 6.65 0 0 1 23 5a6.11 6.11 0 0 1 2.86.63 5.71 5.71 0 0 1 2 1.7A7 7 0 0 1 29 9.74a9.07 9.07 0 0 1 .25 2.86H20a3.56 3.56 0 0 0 .83 2.48zm4-6.76a2.48 2.48 0 0 0-1.92-.7 3.07 3.07 0 0 0-1.4.29 2.68 2.68 0 0 0-.89.71 2.59 2.59 0 0 0-.47.89 4 4 0 0 0-.16.84h5.74a4.08 4.08 0 0 0-.92-2.03zM33.29 15a2.06 2.06 0 0 0 .61.67 2.61 2.61 0 0 0 .86.38 4 4 0 0 0 1 .12 3.76 3.76 0 0 0 .78-.09 2.66 2.66 0 0 0 .75-.27 1.69 1.69 0 0 0 .56-.5 1.3 1.3 0 0 0 .22-.78q0-.79-1.06-1.19a21.17 21.17 0 0 0-2.94-.79q-.77-.17-1.5-.41a5.12 5.12 0 0 1-1.3-.62 3 3 0 0 1-.92-1A2.74 2.74 0 0 1 30 9.09a3.86 3.86 0 0 1 .48-2 3.57 3.57 0 0 1 1.28-1.29 5.61 5.61 0 0 1 1.79-.65 11 11 0 0 1 2-.19 10.18 10.18 0 0 1 2 .2 5.37 5.37 0 0 1 1.75.67 4 4 0 0 1 1.28 1.25 4.22 4.22 0 0 1 .61 2h-3.3a1.54 1.54 0 0 0-.77-1.38 3.52 3.52 0 0 0-1.64-.36 6.09 6.09 0 0 0-.65 0 2.16 2.16 0 0 0-.63.16 1.31 1.31 0 0 0-.48.36 1 1 0 0 0-.2.63 1 1 0 0 0 .35.77 2.68 2.68 0 0 0 .91.48 11.3 11.3 0 0 0 1.28.34l1.47.32a15 15 0 0 1 1.5.42 5 5 0 0 1 1.3.66 3.19 3.19 0 0 1 .92 1A3 3 0 0 1 41.6 14a3.9 3.9 0 0 1-1.84 3.5 5.45 5.45 0 0 1-1.88.73 11 11 0 0 1-2.15.21 10.64 10.64 0 0 1-2.19-.22 5.77 5.77 0 0 1-1.9-.75 4.26 4.26 0 0 1-1.37-1.38A4.31 4.31 0 0 1 29.7 14h3.35a1.93 1.93 0 0 0 .24 1zM42.78 3.33V.42h3.52v2.91zm3.53 2v12.83h-3.53V5.32zM60.14 19.1a4.36 4.36 0 0 1-.9 1.9 5.4 5.4 0 0 1-2 1.45 8.68 8.68 0 0 1-3.53.6 8.22 8.22 0 0 1-1.93-.24A6.12 6.12 0 0 1 50 22a4.4 4.4 0 0 1-1.34-1.28 3.71 3.71 0 0 1-.66-1.84h3.5a2 2 0 0 0 1 1.38 3.48 3.48 0 0 0 1.66.38 2.56 2.56 0 0 0 2.17-.89 3.51 3.51 0 0 0 .67-2.26V15.8a3.49 3.49 0 0 1-1.63 1.5 5.27 5.27 0 0 1-2.22.48 5.61 5.61 0 0 1-2.48-.51 4.71 4.71 0 0 1-1.71-1.39 5.8 5.8 0 0 1-1-2.06 9.76 9.76 0 0 1-.31-2.5A8 8 0 0 1 48 8.93a6.26 6.26 0 0 1 1.06-2 5.1 5.1 0 0 1 1.73-1.4A5.18 5.18 0 0 1 53.13 5a5 5 0 0 1 2.22.47A3.84 3.84 0 0 1 57 7V5.32h3.35v12a8.63 8.63 0 0 1-.21 1.78zm-4.83-4.27a2.75 2.75 0 0 0 .94-.79 3.52 3.52 0 0 0 .56-1.13 4.7 4.7 0 0 0 .19-1.34 7.29 7.29 0 0 0-.15-1.5 3.76 3.76 0 0 0-.5-1.25 2.58 2.58 0 0 0-.92-.87A2.9 2.9 0 0 0 54 7.63a2.59 2.59 0 0 0-1.28.3 2.69 2.69 0 0 0-.89.81 3.4 3.4 0 0 0-.53 1.16 5.76 5.76 0 0 0-.16 1.38 7 7 0 0 0 .14 1.38 3.71 3.71 0 0 0 .47 1.23 2.75 2.75 0 0 0 .88.89 2.5 2.5 0 0 0 1.37.35 2.81 2.81 0 0 0 1.31-.3zM65.33 5.32V7.1h.07a4 4 0 0 1 1.74-1.63A5 5 0 0 1 69.33 5a6 6 0 0 1 2.32.38 3.45 3.45 0 0 1 1.43 1.07 4.14 4.14 0 0 1 .73 1.66 10.37 10.37 0 0 1 .19 2.15v7.9h-3.51V10.9A4.5 4.5 0 0 0 70 8.53a1.92 1.92 0 0 0-1.76-.78 2.44 2.44 0 0 0-2.09.86 4.76 4.76 0 0 0-.65 2.82v6.73H62V5.32zM92.51 5.15a3.93 3.93 0 0 0-.87-1 4.07 4.07 0 0 0-2.56-.89 4.55 4.55 0 0 0-2.24.51 4.22 4.22 0 0 0-1.49 1.37 6 6 0 0 0-.83 1.95 9.71 9.71 0 0 0-.26 2.26 9 9 0 0 0 .26 2.17 5.86 5.86 0 0 0 .83 1.9 4.26 4.26 0 0 0 1.49 1.35 4.55 4.55 0 0 0 2.24.51 3.61 3.61 0 0 0 2.79-1.09 5.05 5.05 0 0 0 1.23-2.88h3.78a9 9 0 0 1-.77 3 7.2 7.2 0 0 1-1.64 2.29 7 7 0 0 1-2.38 1.44 8.74 8.74 0 0 1-3 .5 9.09 9.09 0 0 1-3.66-.71 7.85 7.85 0 0 1-2.74-1.95A8.63 8.63 0 0 1 81 13a10.71 10.71 0 0 1-.6-3.61 11.09 11.09 0 0 1 .6-3.71 8.86 8.86 0 0 1 1.71-3 7.84 7.84 0 0 1 2.74-2 9.51 9.51 0 0 1 6.43-.3 7.51 7.51 0 0 1 2.33 1.23 6.65 6.65 0 0 1 1.7 2 7.15 7.15 0 0 1 .84 2.73H93a3.19 3.19 0 0 0-.49-1.19zM97.79 9.26a4.09 4.09 0 0 1 .62-2.06 4.23 4.23 0 0 1 1.39-1.31 6.06 6.06 0 0 1 1.9-.71 10.82 10.82 0 0 1 2.12-.18 14.43 14.43 0 0 1 2 .14 6 6 0 0 1 1.81.53 3.57 3.57 0 0 1 1.34 1.11 3.09 3.09 0 0 1 .52 1.88v6.64a13.38 13.38 0 0 0 .1 1.66 3 3 0 0 0 .35 1.19h-3.58a5 5 0 0 1-.16-.61 5.18 5.18 0 0 1-.09-.63 4.6 4.6 0 0 1-2 1.22 8 8 0 0 1-2.33.35 6.31 6.31 0 0 1-1.71-.22 3.92 3.92 0 0 1-1.39-.7 3.23 3.23 0 0 1-.93-1.19 4 4 0 0 1-.34-1.71 3.74 3.74 0 0 1 .38-1.8 3.22 3.22 0 0 1 1-1.13 4.45 4.45 0 0 1 1.39-.63 15 15 0 0 1 1.58-.34q.79-.12 1.56-.2a9.42 9.42 0 0 0 1.37-.22 2.38 2.38 0 0 0 .94-.43 1 1 0 0 0 .32-.83 1.87 1.87 0 0 0-.19-.91 1.37 1.37 0 0 0-.5-.52 2 2 0 0 0-.72-.25 5.94 5.94 0 0 0-.88-.06 2.68 2.68 0 0 0-1.64.45 2 2 0 0 0-.7 1.49zm8.15 2.61a1.58 1.58 0 0 1-.56.31 5.7 5.7 0 0 1-.72.19q-.39.07-.81.12l-.84.12a6.38 6.38 0 0 0-.78.2 2.32 2.32 0 0 0-.67.34 1.59 1.59 0 0 0-.46.53 1.72 1.72 0 0 0-.17.82 1.66 1.66 0 0 0 .17.79 1.33 1.33 0 0 0 .47.51 2 2 0 0 0 .7.26 4.43 4.43 0 0 0 .82.07 3.11 3.11 0 0 0 1.61-.35 2.33 2.33 0 0 0 .84-.83 2.66 2.66 0 0 0 .34-1 6.82 6.82 0 0 0 .06-.79zM114.58 5.32V7.1h.07a4 4 0 0 1 1.74-1.63 5 5 0 0 1 2.19-.47 6 6 0 0 1 2.32.38 3.45 3.45 0 0 1 1.43 1.07 4.14 4.14 0 0 1 .73 1.66 10.37 10.37 0 0 1 .21 2.17v7.9h-3.53V10.9a4.5 4.5 0 0 0-.5-2.37 1.92 1.92 0 0 0-1.76-.78 2.44 2.44 0 0 0-2.09.86 4.76 4.76 0 0 0-.65 2.82v6.73h-3.53V5.32zM124.68 9.26a4.09 4.09 0 0 1 .62-2.06 4.23 4.23 0 0 1 1.39-1.32 6.06 6.06 0 0 1 1.9-.71 10.82 10.82 0 0 1 2.13-.17 14.43 14.43 0 0 1 2 .14 6 6 0 0 1 1.81.53 3.57 3.57 0 0 1 1.34 1.11 3.09 3.09 0 0 1 .52 1.88v6.64a13.38 13.38 0 0 0 .1 1.66 3 3 0 0 0 .35 1.19h-3.58a5 5 0 0 1-.16-.61 5.18 5.18 0 0 1-.09-.63 4.6 4.6 0 0 1-2 1.22 8 8 0 0 1-2.33.35 6.31 6.31 0 0 1-1.71-.22 3.92 3.92 0 0 1-1.39-.7 3.23 3.23 0 0 1-.93-1.19 4 4 0 0 1-.34-1.71 3.74 3.74 0 0 1 .38-1.8 3.22 3.22 0 0 1 1-1.13 4.45 4.45 0 0 1 1.39-.63 15 15 0 0 1 1.58-.34q.79-.12 1.56-.2a9.42 9.42 0 0 0 1.37-.22 2.38 2.38 0 0 0 .94-.43 1 1 0 0 0 .32-.83 1.87 1.87 0 0 0-.19-.91 1.37 1.37 0 0 0-.5-.52 2 2 0 0 0-.72-.25 5.94 5.94 0 0 0-.88-.06 2.68 2.68 0 0 0-1.64.45 2 2 0 0 0-.7 1.49zm8.15 2.61a1.58 1.58 0 0 1-.56.31 5.7 5.7 0 0 1-.72.19q-.39.07-.81.12l-.84.12a6.38 6.38 0 0 0-.78.2 2.32 2.32 0 0 0-.67.34 1.59 1.59 0 0 0-.46.53 1.72 1.72 0 0 0-.17.82 1.66 1.66 0 0 0 .17.79 1.33 1.33 0 0 0 .47.51 2 2 0 0 0 .7.26 4.43 4.43 0 0 0 .82.07 3.11 3.11 0 0 0 1.61-.35 2.33 2.33 0 0 0 .84-.83 2.66 2.66 0 0 0 .34-1 6.82 6.82 0 0 0 .06-.79zM147.11 16.52a3.64 3.64 0 0 1-1.63 1.5 5.41 5.41 0 0 1-2.27.46 5.49 5.49 0 0 1-2.53-.56 5.08 5.08 0 0 1-1.8-1.52 6.87 6.87 0 0 1-1.07-2.2 9.22 9.22 0 0 1-.36-2.58 8.67 8.67 0 0 1 .36-2.5A6.49 6.49 0 0 1 138.87 7a5.19 5.19 0 0 1 4.26-2 5.05 5.05 0 0 1 2.17.48 3.79 3.79 0 0 1 1.63 1.43V.42h3.53v17.74h-3.35v-1.64zm-.11-6.35a3.74 3.74 0 0 0-.51-1.29 2.87 2.87 0 0 0-.93-.91 2.73 2.73 0 0 0-1.44-.35 2.87 2.87 0 0 0-1.47.35 2.75 2.75 0 0 0-1 .92 4.06 4.06 0 0 0-.52 1.3 7.06 7.06 0 0 0-.16 1.53 6.53 6.53 0 0 0 .17 1.49 4.06 4.06 0 0 0 .56 1.33 3.09 3.09 0 0 0 1 .94 2.62 2.62 0 0 0 1.4.36 2.79 2.79 0 0 0 1.45-.35 2.64 2.64 0 0 0 .93-.93 4.17 4.17 0 0 0 .5-1.33 7.83 7.83 0 0 0 .15-1.54 7.64 7.64 0 0 0-.13-1.52zM152.07 9.26a4.09 4.09 0 0 1 .62-2.06 4.23 4.23 0 0 1 1.39-1.32 6.06 6.06 0 0 1 1.9-.71A10.82 10.82 0 0 1 158.1 5a14.43 14.43 0 0 1 2 .14 6 6 0 0 1 1.81.53 3.57 3.57 0 0 1 1.34 1.11 3.09 3.09 0 0 1 .52 1.88v6.64a13.38 13.38 0 0 0 .1 1.66 3 3 0 0 0 .35 1.19h-3.58a5 5 0 0 1-.16-.61 5.18 5.18 0 0 1-.09-.63 4.6 4.6 0 0 1-2 1.22 8 8 0 0 1-2.33.35 6.31 6.31 0 0 1-1.71-.22 3.92 3.92 0 0 1-1.39-.7 3.23 3.23 0 0 1-.93-1.19 4 4 0 0 1-.34-1.71 3.74 3.74 0 0 1 .38-1.8 3.22 3.22 0 0 1 1-1.13 4.45 4.45 0 0 1 1.39-.63 15 15 0 0 1 1.58-.34q.79-.12 1.56-.2a9.42 9.42 0 0 0 1.37-.22 2.38 2.38 0 0 0 .94-.43 1 1 0 0 0 .32-.83 1.87 1.87 0 0 0-.19-.91 1.37 1.37 0 0 0-.5-.52 2 2 0 0 0-.72-.25 5.94 5.94 0 0 0-.88-.06 2.68 2.68 0 0 0-1.64.45 2 2 0 0 0-.7 1.49zm8.15 2.61a1.58 1.58 0 0 1-.56.31 5.7 5.7 0 0 1-.72.19q-.39.07-.81.12l-.84.12a6.38 6.38 0 0 0-.78.2 2.32 2.32 0 0 0-.67.34 1.59 1.59 0 0 0-.46.53 1.72 1.72 0 0 0-.17.82 1.66 1.66 0 0 0 .17.79 1.33 1.33 0 0 0 .47.51 2 2 0 0 0 .7.26 4.43 4.43 0 0 0 .82.07 3.11 3.11 0 0 0 1.63-.33 2.33 2.33 0 0 0 .84-.83 2.66 2.66 0 0 0 .34-1 6.82 6.82 0 0 0 .06-.79z"/></symbol><symbol viewBox="0 0 1024 276.74" id="netflix" xmlns="http://www.w3.org/2000/svg"><title>netflix</title><path d="M140.8 258.9c-15.4 2.7-31.08 3.52-47.29 5.68L44.05 119.72V270.8c-15.4 1.62-29.46 3.78-44.05 5.95V0h41.08l56.21 157V0h43.51v258.9zm85.13-157.56c16.76 0 42.43-.81 57.83-.81v43.24c-19.19 0-41.62 0-57.83.81v64.32c25.4-1.62 50.81-3.79 76.48-4.6v41.62l-119.72 9.46V0h119.73v43.24h-76.49zm237.28-58.1h-44.85v198.91c-14.59 0-29.19 0-43.24.54V43.24h-44.86V0h133zm70.27 55.13h59.19v43.24h-59.19v98.1h-42.43V0h120.81v43.24h-78.38zm148.65 103.51c24.59.54 49.46 2.43 73.51 3.78v42.7c-38.65-2.43-77.29-4.86-116.75-5.68V0h43.24v201.88zm110 49.46c13.78.81 28.38 1.62 42.43 3.24V0h-42.44zM1024 0l-54.86 131.62L1024 276.74c-16.22-2.16-32.43-5.14-48.65-7.84l-31.08-80-31.62 73.51c-15.68-2.7-30.81-3.52-46.48-5.68L921.84 130 871.58 0h46.48l28.38 72.7L976.71 0H1024z" fill="#d81f26"/></symbol><symbol viewBox="0 0 24 24" id="play" xmlns="http://www.w3.org/2000/svg"><title>play</title><path d="M12 0a12 12 0 1 0 12 12A12 12 0 0 0 12 0zM9 17V7l9 5.15z"/></symbol><symbol viewBox="0 0 18.6 16.5" id="play_alone" xmlns="http://www.w3.org/2000/svg"><path d="M3.6 0l15 8.2-15 8.2"/></symbol><symbol viewBox="0 0 18 19.9" id="share" xmlns="http://www.w3.org/2000/svg"><path d="M15 14.1c-.8 0-1.4.3-2 .8l-7.1-4.1c.1-.3.1-.6.1-.8 0-.2 0-.5-.1-.7L13 5.2c.5.5 1.2.8 2 .8 1.7 0 3-1.3 3-3s-1.3-3-3-3-3 1.3-3 3c0 .2 0 .5.1.7L5 7.8C4.5 7.3 3.8 7 3 7c-1.7 0-3 1.3-3 3s1.3 3 3 3c.8 0 1.5-.3 2-.8l7.1 4.2c-.1.2-.1.4-.1.7 0 1.6 1.3 2.9 2.9 2.9 1.6 0 2.9-1.3 2.9-2.9.1-1.7-1.2-3-2.8-3"/></symbol><symbol viewBox="0 0 24 24" id="twitter" xmlns="http://www.w3.org/2000/svg"><title>Artboard 2</title><path d="M24 4.56a9.85 9.85 0 0 1-2.83.78 4.94 4.94 0 0 0 2.16-2.72 9.85 9.85 0 0 1-3.12 1.18 4.93 4.93 0 0 0-8.39 4.49A14 14 0 0 1 1.67 3.15a4.93 4.93 0 0 0 1.52 6.57A4.9 4.9 0 0 1 1 9.11 4.93 4.93 0 0 0 4.91 14a4.94 4.94 0 0 1-2.22.08 4.93 4.93 0 0 0 4.6 3.42 9.91 9.91 0 0 1-7.29 2 13.94 13.94 0 0 0 7.55 2.21 13.93 13.93 0 0 0 14-14.65A10 10 0 0 0 24 4.56z"/></symbol></svg>