<svg enable-background="new 0 0 383.9 383.9" viewBox="0 0 383.9 383.9" xmlns="http://www.w3.org/2000/svg"><g transform="translate(-107.48434 210.12508)"><path d="m235.5-78.2c-33.1 0-60 26.9-60 60s26.9 60 60 60v-40c-11 0-20-9-20-20 0-10.4 7.9-19 18-20 .7-.1 1.3 0 2 0z" fill="#ff4000"/><path d="m363.5-78.1v40c10.4 0 18.9 7.9 19.9 18h40c-1.1-32.2-27.5-58-59.9-58zm19.9 62c-1 10.1-9.5 18-19.9 18v40c32.4 0 58.8-25.8 59.9-58z" fill="#ff4000"/><path d="m235.5-142.2c-33.1 0-60 26.9-60 60h40c0-10.3 7.9-19 18-20 .7-.1 1.3 0 2 0z" fill="#ff8000"/><path d="m299.5-142.2c-33.1 0-60 26.9-60 60h40c0-10.3 7.9-19 18-20 .7-.1 1.3 0 2 0 11 0 20 9 20 20h40c0-33.1-26.9-60-60-60z" fill="#ff4000"/><path d="m363.5-142.2v40c11 0 20 9 20 20h40c0-33.1-26.9-60-60-60z" fill="#ff8000"/><path d="m235.5 105.9c-33.1 0-60-26.9-60-60h40c0 10.3 7.9 19 18 20 .7.1 1.3 0 2 0z" fill="#ff8000"/><path d="m299.5 105.9c-33.1 0-60-26.9-60-60h40c0 10.3 7.9 19 18 20 .7.1 1.3 0 2 0 11 0 20-9 20-20h40c0 33.1-26.9 60-60 60z" fill="#ff4000"/><path d="m363.5 105.9v-40c11 0 20-9 20-20h40c0 33.1-26.9 60-60 60z" fill="#ff8000"/></g></svg>