<svg enable-background="new 0 0 383.9 383.9" viewBox="0 0 383.9 383.9" xmlns="http://www.w3.org/2000/svg"><g transform="translate(-107.48434 210.12508)"><path d="m171.5-74.7c-23.3 8.2-40 30.5-40 56.6s16.7 48.3 40 56.5z" fill="#ff8000"/><path d="m427.5-74.6v54.5h39.9c-.9-25.3-17.2-46.5-39.9-54.5zm0 58.5v54.5c22.7-8 39-29.3 39.9-54.5z" fill="#ff8000"/><path d="m171.5-138.8c-23.3 8.2-40 30.5-40 56.6h40z" fill="#ffc000"/><path d="m427.5-138.7v56.5h40c0-26.1-16.7-48.2-40-56.5z" fill="#ffc000"/><path d="m235.5-186.1c-26.1 0-48.3 16.7-56.5 40l56.5-.1z" fill="#ffc000"/><path d="m299.5-186.1c-26.1 0-48.3 16.7-56.5 40h113c-8.3-23.3-30.4-40-56.5-40z" fill="#ff8000"/><g fill="#ffc000"><path d="m363.5-186.1v40h56.5c-8.3-23.3-30.4-40-56.5-40z"/><path d="m171.5 102.5c-23.3-8.2-40-30.5-40-56.6h40z"/><path d="m427.5 102.4v-56.5h40c0 26.1-16.7 48.2-40 56.5z"/><path d="m235.5 149.8c-26.1 0-48.3-16.7-56.5-40l56.5.1z"/></g><path d="m299.5 149.8c-26.1 0-48.3-16.7-56.5-40h113c-8.3 23.3-30.4 40-56.5 40z" fill="#ff8000"/><path d="m363.5 149.8v-40h56.5c-8.3 23.3-30.4 40-56.5 40z" fill="#ffc000"/></g></svg>