<svg enable-background="new 0 0 383.9 383.9" viewBox="0 0 383.9 383.9" xmlns="http://www.w3.org/2000/svg"><g fill="#ffc000" transform="translate(-107.48434 210.12508)"><path d="m127.5-62.7c-12.2 11-20 26.9-20 44.6s7.8 33.5 20 44.5z"/><path d="m471.5-62.6v42.5h19.9c-.6-16.9-8.2-32-19.9-42.5zm0 46.5v42.5c11.8-10.6 19.3-25.6 19.9-42.5z"/><path d="m299.5-210.1c-17.8 0-33.7 7.7-44.6 20h89.2c-11-12.3-26.9-20-44.6-20z"/><path d="m299.5 173.8c-17.8 0-33.7-7.7-44.6-20h89.2c-11 12.3-26.9 20-44.6 20z"/></g></svg>